<svg width="108" height="108" viewBox="0 0 108 108" fill="none" xmlns="http://www.w3.org/2000/svg">
<path d="M27.4976 18C26.6674 18 25.9936 18.6921 25.9936 19.5466V20.3494C25.9936 21.2032 26.6666 21.896 27.4976 21.896H81.5015C82.3318 21.896 83.0055 21.2039 83.0055 20.3494V19.5466C83.0055 18.6929 82.3325 18 81.5015 18H27.4976Z" fill="#F37F16"/>
<path d="M81.9113 23.7357C81.7757 23.7533 81.6418 23.778 81.5016 23.778H27.4976C27.3575 23.778 27.2243 23.7525 27.088 23.7357C25.3834 27.533 21 32.1291 21 37.7286C21 48.4451 21 69.2902 21 74.6963C21 84.2754 26.2291 89.6528 41.5903 89.6528H67.4097C82.7701 89.6528 88 84.2754 88 74.6971C88 69.291 88 48.4459 88 37.7294C87.9992 32.1291 83.6158 27.533 81.9113 23.7357Z" fill="#F37F16"/>
<path d="M68.5534 46.6383H40.693C40.3297 49.2344 38.325 51.2929 35.7986 51.6642V61.6211C38.325 61.9942 40.3297 64.0527 40.6946 66.6453H68.5534C68.92 64.051 70.9246 61.9925 73.4494 61.6211V51.6642C70.9213 51.2929 68.9167 49.2344 68.5534 46.6383ZM54.6232 52.8274C53.8785 52.8274 53.2724 53.3802 53.2724 54.1467C53.2724 54.9131 53.9594 55.1844 55.1301 55.5676C57.3379 56.29 58.6754 57.3362 58.6754 59.4168C58.6754 61.1735 57.3841 62.4316 55.6354 62.7843V64.2731H53.606V62.7504C51.8589 62.2892 50.5676 60.6648 50.5676 58.7266H53.2691V59.0708C53.2691 59.8373 53.8752 60.4579 54.6199 60.4579C55.3646 60.4579 55.969 59.9051 55.969 59.1404C55.969 58.3722 55.1252 58.0636 54.1113 57.7177C51.9382 57.0005 50.566 55.9491 50.566 53.8686C50.566 52.1119 51.8573 50.8537 53.6043 50.501V49.0122H55.6338V50.5366C57.3825 50.9978 58.6738 52.6223 58.6738 54.5604H55.9723V54.2145C55.9739 53.4481 55.3679 52.8274 54.6232 52.8274Z" fill="#305F20"/>
<path d="M73.6129 43.0774H35.6334C33.8104 43.0774 32.3309 44.5967 32.3309 46.4687V66.8166C32.3309 68.6886 33.8104 70.2079 35.6334 70.2079H73.6129C75.4359 70.2079 76.9154 68.6886 76.9154 66.8166V46.4687C76.9154 44.5967 75.4359 43.0774 73.6129 43.0774ZM75.099 62.4079C75.099 62.8742 74.7275 63.2557 74.2734 63.2557C71.9963 63.2557 70.1452 65.1565 70.1452 67.4948C70.1452 67.9612 69.7737 68.3427 69.3195 68.3427H39.9268C39.471 68.3427 39.1011 67.9612 39.1011 67.4948C39.1011 65.1565 37.25 63.2557 34.9729 63.2557C34.5172 63.2557 34.1473 62.8742 34.1473 62.4079V50.8774C34.1473 50.4094 34.5172 50.0296 34.9729 50.0296C37.25 50.0296 39.1011 48.1271 39.1011 45.7905C39.1011 45.3225 39.471 44.9426 39.9268 44.9426H69.3195C69.7737 44.9426 70.1452 45.3225 70.1452 45.7905C70.1452 48.1271 71.9963 50.0296 74.2734 50.0296C74.7275 50.0296 75.099 50.4094 75.099 50.8774V62.4079Z" fill="#305F20"/>
</svg>
